<svg xmlns="http://www.w3.org/2000/svg" xmlns:xlink="http://www.w3.org/1999/xlink" width="737" height="533"><defs><path id="a" d="M0 0h789v273H0z"/><path id="c" d="M.181.263h202.075v131.2H.18z"/><path id="e" d="M.689.736h191.867v111.726H.689z"/><path id="g" d="M0 0h485v261H0z"/><path id="i" d="M0 0h96v102H0z"/></defs><g fill="none" fill-rule="evenodd"><g transform="translate(0 260)"><mask id="b" fill="#fff"><use xlink:href="#a"/></mask><path fill="#07437F" stroke="#14428B" d="M257.5 1105C-48.742 1105-297 857.638-297 552.5-297 247.362-48.742 0 257.5 0 563.742 0 812 247.362 812 552.5c0 305.138-248.258 552.5-554.5 552.5z" mask="url(#b)"/></g><g transform="translate(435 399)"><mask id="d" fill="#fff"><use xlink:href="#c"/></mask><path fill="#07437F" d="M186.866 55.715c29.589 51.002 15.23 114.38-32.073 141.56-47.301 27.177-109.634 7.864-139.222-43.138C-14.017 103.134.34 39.757 47.644 12.577 94.945-14.6 157.278 4.712 186.866 55.715" mask="url(#d)"/></g><g transform="translate(444 418)"><mask id="f" fill="#fff"><use xlink:href="#e"/></mask><path fill="#06C" d="M140.653 166.986c-47.06 27.043-104.923 14.981-129.24-26.94C-12.906 98.12 5.53 42.213 52.591 15.17 99.652-11.873 157.515.19 181.832 42.111c24.317 41.923 5.88 97.832-41.179 124.875z" mask="url(#f)" opacity=".248"/></g><g opacity=".235" transform="translate(-3 258)"><mask id="h" fill="#fff"><use xlink:href="#g"/></mask><path fill="#006ACE" d="M490 49.82C424.218 22.102 335.31 0 259.322 0 118.152 0-10.542 52.937-107.673 139.868c-6.801 24.209 1.895 52.973 18.42 71.715 19.434 22.04 47.114 32.834 74.324 40.112 66.984 17.918 135.437 6.8 203.854-6.884 29.337-5.868 100.271-34.894 121.843-46.804C391.12 153.647 435.362 127.082 490 49.82" mask="url(#h)"/></g><path fill="#006ACE" d="M192.166 445.709c27.89-15.624 27.756-58.716-.268-71.882a208.708 208.708 0 0 0-38.923-13.78c-56.699-13.958-114.557-3.162-165.498 26.293-16.888 9.765-24.924 31.675-17.981 50.415.144.387.291.77.444 1.147 5.746 14.217 16.643 23.171 27.795 30.145 27.452 17.166 59.397 25.371 91.642 18.56 11.302-2.388 22.508-6.567 33.68-10.735 23.085-8.614 46.734-17.629 69.109-30.163" opacity=".658"/><path fill="#14428B" d="M185.844 391.155a169.433 169.433 0 0 0-31.645-11.228c-46.096-11.373-93.135-2.576-134.55 21.424-13.731 7.957-20.264 25.81-14.62 41.079.117.315.237.627.361.935 4.672 11.584 13.53 18.88 22.598 24.562 22.319 13.987 48.29 20.673 74.505 15.123 9.19-1.945 18.3-5.35 27.382-8.747 18.769-7.018 37.996-14.364 56.186-24.577 22.676-12.731 22.567-47.843-.217-58.57z" opacity=".481"/><path fill="#355B94" d="M433.031 382.41c12.023 14.52 8.1 37.302-8.763 50.882-16.861 13.581-40.277 12.82-52.3-1.701-12.022-14.52-8.099-37.302 8.764-50.883 16.861-13.581 40.277-12.82 52.3 1.701"/><path fill="#173E77" d="M435.597 394.515c8.714 10.758 4.093 29.098-10.32 40.963-14.413 11.866-33.161 12.764-41.874 2.006-8.713-10.756-4.093-29.097 10.32-40.962 14.413-11.866 33.16-12.764 41.874-2.007"/><path fill="#FFF" stroke="#979797" stroke-opacity=".276" d="M438.15 221.836c-.81 3.733-1.578 7.26-3.211 8.744-3.108 2.824-8.013 2.92-11.307.471 2.016-3.466 4.834-7.339 8.69-10.843a1.258 1.258 0 0 0 .093-1.764 1.232 1.232 0 0 0-1.747-.091c-3.878 3.524-6.752 7.363-8.848 10.854a8.955 8.955 0 0 1-1.692-5.751 8.937 8.937 0 0 1 2.93-6.195c4.214-3.829 11.078-6.047 18.708-6.117-1.945 2.99-2.82 7.033-3.617 10.692m-28.644-6.092a3.802 3.802 0 0 1-5.4-.283c-.603-.674-.797-2.449-.985-4.166-.167-1.535-.35-3.2-.858-4.666 3.188.545 5.908 1.853 7.53 3.664a3.888 3.888 0 0 1-.287 5.45m36.029-6.206a1.238 1.238 0 0 0-1.102-.83c-9.268-.486-17.877 2.02-23.027 6.7a11.434 11.434 0 0 0-3.747 7.92 11.44 11.44 0 0 0 2.847 8.207 50.097 50.097 0 0 0-2.266 4.865c-1.315-5.862-3.78-15.68-6.307-19.645 1.82-2.383 1.759-5.818-.305-8.13-2.459-2.757-6.66-4.486-11.526-4.741a1.235 1.235 0 0 0-1.182.709c-.217.455-.14.998.195 1.372 1.065 1.191 1.308 3.437 1.547 5.607.244 2.207.471 4.289 1.606 5.561a6.249 6.249 0 0 0 4.349 2.089 6.254 6.254 0 0 0 3.432-.817c2.63 4.42 5.671 17.696 6.7 22.874l-.232.004a152.42 152.42 0 0 1-1.368 33.343l2.678.283a153.918 153.918 0 0 0 1.38-33.66h-.004c.167-.628 1.075-3.825 3.214-7.978a11.2 11.2 0 0 0 5.983 2.098 11.249 11.249 0 0 0 8.196-2.931c2.227-2.024 3.076-5.931 3.974-10.068.966-4.458 1.969-9.072 4.627-11.487.371-.338.506-.868.338-1.345"/><path fill="#07437F" d="M411.663 274.312c1.947-1.446 4.622-2.972 6.913-1.893 1.255.59 1.911 1.786 2.644 2.841 2.738 3.939 7.363 6.578 11.467 9.525 5.144 3.693 9.989 9.585 7.184 14.724-1.813 3.322-6.179 4.92-10.24 6.082-4.947 1.416-10.097 2.612-15.332 2.37-4.461-.205-8.777-1.444-13.028-2.672l-6.36-1.836c-13.008-3.757 1.069-17.507 6.708-21.69l10.044-7.451z"/><g opacity=".856"><path fill="#173E77" d="M175.924 314.429c-9.778 1.548-18.84 7.468-24.393 15.934-.79 1.206-1.543 2.617-1.264 4.043.379 1.938 2.412 2.941 4.207 3.622 14.497 5.503 30.716 8.88 45.284 3.513 4.008-1.476 7.808-3.59 11.943-4.617 6.564-1.633 13.431-.42 20.087.713a787.852 787.852 0 0 0 46.082 6.45c4.77.524 9.932.92 14.036-1.657 5.46-3.429 7.257-10.993 12.413-14.892 5.757-4.355 13.772-3.88 20.767-2.49 30.372 6.04 20.214-35.547 18.87-43.438l-168.032 32.819z"/><path stroke="#14428B" d="M175.924 314.429c-9.778 1.548-18.84 7.468-24.393 15.934-.79 1.206-1.543 2.617-1.264 4.043.379 1.938 2.412 2.941 4.207 3.622 14.497 5.503 30.716 8.88 45.284 3.513 4.008-1.476 7.808-3.59 11.943-4.617 6.564-1.633 13.431-.42 20.087.713a787.852 787.852 0 0 0 46.082 6.45c4.77.524 9.932.92 14.036-1.657 5.46-3.429 7.257-10.993 12.413-14.892 5.757-4.355 13.772-3.88 20.767-2.49 30.372 6.04 20.214-35.547 18.87-43.438l-168.032 32.819z"/></g><path fill="#FFF" d="M401.592 123.8c-1.375 39.367-34.401 70.165-73.768 68.79-39.366-1.374-70.163-34.401-68.788-73.767 1.374-39.366 34.4-70.165 73.766-68.79 39.367 1.375 70.165 34.402 68.79 73.768M293.748 295.537a53.612 53.612 0 0 0-7.684-11.115c-2.323-2.593-4.893-4.95-7.458-7.303-4.238-3.888-8.475-7.776-12.713-11.662 2.745 9.745 7.32 18.87 12.18 27.751 2.381 4.35 4.908 8.927 4.82 13.884-.063 3.652-1.558 7.154-1.73 10.803l-.774.512c8.817-4.148 14.03-14.79 11.902-24.297"/><path stroke="#14428B" stroke-linecap="round" stroke-linejoin="round" stroke-width="2" d="M293.748 295.537a53.612 53.612 0 0 0-7.684-11.115c-2.323-2.593-4.893-4.95-7.458-7.303-4.238-3.888-8.475-7.776-12.713-11.662 2.745 9.745 7.32 18.87 12.18 27.751 2.381 4.35 4.908 8.927 4.82 13.884-.063 3.652-1.558 7.154-1.73 10.803l-.774.512c8.817-4.148 14.03-14.79 11.902-24.297"/><g opacity=".502"><path fill="#14428B" d="M293.748 295.537a53.612 53.612 0 0 0-7.684-11.115c-2.323-2.593-4.893-4.95-7.458-7.303-4.238-3.888-8.475-7.776-12.713-11.662 2.745 9.745 7.32 18.87 12.18 27.751 2.381 4.35 4.908 8.927 4.82 13.884-.063 3.652-1.558 7.154-1.73 10.803l-.774.512c8.817-4.148 14.03-14.79 11.902-24.297"/><path stroke="#14428B" stroke-linecap="round" stroke-linejoin="round" stroke-width="2" d="M293.748 295.537a53.612 53.612 0 0 0-7.684-11.115c-2.323-2.593-4.893-4.95-7.458-7.303-4.238-3.888-8.475-7.776-12.713-11.662 2.745 9.745 7.32 18.87 12.18 27.751 2.381 4.35 4.908 8.927 4.82 13.884-.063 3.652-1.558 7.154-1.73 10.803l-.774.512c8.817-4.148 14.03-14.79 11.902-24.297"/></g><path fill="#FFF" d="M299.426 216.602l1.727-3.201c.073-.003.687-1.035.756-1.01 8.625 3.204 17.76 17.505 18.892 26.973.26 2.174.298 4.512 1.507 6.306 1.287 1.911 3.578 2.724 5.713 3.422l5.412 1.934a497.913 497.913 0 0 0 16.656 3.701l1.3-.553c2.496-3.158 7.045-3.627 10.11-1.042 3.066 2.586 3.531 7.287 1.036 10.445l-.385.953c4.792 3.525 9.417 8.882 9.565 14.986.093 3.782-1.594 7.634-4.282 10.071.225.361-1.51 1.383-1.577 1.806-.1.636-.526 1.16-.955 1.625a19.704 19.704 0 0 1-6.962 4.854c.315-5.819-4.016-10.9-9.243-13.114 2.935-4.87-.923-12.38-6.48-12.613-1.893-.08-3.775.537-5.661.353-2.886-.28-5.276-2.348-7.46-4.321-5.3-4.789-10.615-9.59-15.345-14.978a94.732 94.732 0 0 1-14.87-22.955c-.716-1.561-2.208-5.426-3.582-9.022-1.041-2.722 1.418-5.473 4.128-4.62"/><path stroke="#14428B" stroke-linecap="round" stroke-linejoin="round" stroke-width="2" d="M299.426 216.602l1.727-3.201c.073-.003.687-1.035.756-1.01 8.625 3.204 17.76 17.505 18.892 26.973.26 2.174.298 4.512 1.507 6.306 1.287 1.911 3.578 2.724 5.713 3.422l5.412 1.934a497.913 497.913 0 0 0 16.656 3.701l1.3-.553c2.496-3.158 7.045-3.627 10.11-1.042 3.066 2.586 3.531 7.287 1.036 10.445l-.385.953c4.792 3.525 9.417 8.882 9.565 14.986.093 3.782-1.594 7.634-4.282 10.071.225.361-1.51 1.383-1.577 1.806-.1.636-.526 1.16-.955 1.625a19.704 19.704 0 0 1-6.962 4.854c.315-5.819-4.016-10.9-9.243-13.114 2.935-4.87-.923-12.38-6.48-12.613-1.893-.08-3.775.537-5.661.353-2.886-.28-5.276-2.348-7.46-4.321-5.3-4.789-10.615-9.59-15.345-14.978a94.732 94.732 0 0 1-14.87-22.955c-.716-1.561-2.208-5.426-3.582-9.022-1.041-2.722 1.418-5.473 4.128-4.62z"/><path fill="#14428B" d="M222.71 165.69a2.885 2.885 0 0 1-2.331-2.373c-.816-5-2.006-9.945-3.536-14.7-.361-1.126-.744-2.243-1.125-3.36-.964-2.824-1.96-5.743-2.65-8.805-3.2-14.172.86-30.275 10.338-41.026 9.6-10.887 24.207-15.733 37.236-12.345a2.883 2.883 0 0 1 2.063 3.516 2.891 2.891 0 0 1-3.516 2.064c-10.927-2.848-23.282 1.306-31.458 10.578-8.296 9.409-11.844 23.518-9.04 35.944.623 2.76 1.527 5.409 2.483 8.211.393 1.15.785 2.3 1.157 3.457a107.18 107.18 0 0 1 3.737 15.538 2.882 2.882 0 0 1-3.359 3.301"/><path stroke="#14428B" stroke-width="2" d="M222.71 165.69a2.885 2.885 0 0 1-2.331-2.373c-.816-5-2.006-9.945-3.536-14.7-.361-1.126-.744-2.243-1.125-3.36-.964-2.824-1.96-5.743-2.65-8.805-3.2-14.172.86-30.275 10.338-41.026 9.6-10.887 24.207-15.733 37.236-12.345a2.883 2.883 0 0 1 2.063 3.516 2.891 2.891 0 0 1-3.516 2.064c-10.927-2.848-23.282 1.306-31.458 10.578-8.296 9.409-11.844 23.518-9.04 35.944.623 2.76 1.527 5.409 2.483 8.211.393 1.15.785 2.3 1.157 3.457a107.18 107.18 0 0 1 3.737 15.538 2.882 2.882 0 0 1-3.359 3.301z"/><path fill="#14428B" d="M188.868 222.949c18.142-26.751 41.91-43.662 57.506-52.849a80.809 80.809 0 0 0-15.749-10.084c-.349-.17-.712-.34-1.1-.347-.497-.01-.956.25-1.386.502-5.16 3.023-11.233 7.302-16.395 10.325.911 2.32-.39 5.325.52 7.645-12.954 10.45-22.97 18.827-26.006 35.192-.966 5.21-5.705 7.358-.935 12.74l3.545-3.124z"/><path stroke="#14428B" stroke-width="2" d="M188.868 222.949c18.142-26.751 41.91-43.662 57.506-52.849a80.809 80.809 0 0 0-15.749-10.084c-.349-.17-.712-.34-1.1-.347-.497-.01-.956.25-1.386.502-5.16 3.023-11.233 7.302-16.395 10.325.911 2.32-.39 5.325.52 7.645-12.954 10.45-22.97 18.827-26.006 35.192-.966 5.21-5.705 7.358-.935 12.74l3.545-3.124z"/><path fill="#80D0EC" d="M405.216 140.618c-9.466 41-50.377 66.563-91.377 57.097-41-9.465-66.563-50.376-57.097-91.377 9.466-41 50.377-66.563 91.377-57.097 41 9.466 66.564 50.377 57.097 91.377" opacity=".695"/><path stroke="#14428B" stroke-width="2" d="M406.573 118.954c2.698 40.552-27.989 75.611-68.54 78.31"/><path fill="#F2F2F2" d="M251.811 100.62c-10.117 43.82 16.634 87.41 59.75 97.366a78.884 78.884 0 0 0 18.9 2.013c1.046-.015 1.734-1.104 1.324-2.067l-4.607-10.794c-1.884-4.416-17.335-18.868 39.79-72.312 10.905-10.204 27.088-12.376 40.3-5.409 1.063.562 2.317-.31 2.17-1.503-4.07-32.741-27.69-60.863-61.242-68.609-43.116-9.954-86.269 17.498-96.385 61.316z"/><path stroke="#14428B" stroke-width="3" d="M348.196 39.305c-43.116-9.954-86.269 17.498-96.385 61.316-10.117 43.819 16.634 87.41 59.75 97.365a78.884 78.884 0 0 0 18.9 2.013c1.046-.015 1.734-1.104 1.324-2.067l-4.607-10.794c-1.884-4.416-17.335-18.868 39.79-72.312 10.905-10.204 27.088-12.376 40.3-5.409 1.063.562 2.317-.31 2.17-1.503-4.07-32.741-27.69-60.863-61.242-68.609z"/><path stroke="#14428B" stroke-linecap="round" stroke-linejoin="round" stroke-width="2" d="M343.717 152.864a100.972 100.972 0 0 1 17.885-20.84"/><path fill="#FFF" d="M351.226 271.028c-2.424-2.286-5.991-2.651-8.785-1.156-1.511.81-3.38.557-4.834-.352l-1.64-1.027a4.877 4.877 0 0 1-.484-.346 6206.431 6206.431 0 0 0-23.895-19.378 4.742 4.742 0 0 1-1.546-2.273c-1.988-6.28-10.96-32.49-24.829-41.536a20.386 20.386 0 0 1 7.38 6.748c8.022 12.104 17.74-7.776 14.028-10.442-22.694-17.748-37.352-30.284-42.788-35.018a4.74 4.74 0 0 0-5.232-.67c-11.778 5.82-52.911 27.254-75.858 71.6a5.118 5.118 0 0 0-.517 1.556c-2.975 18.902 6.99 43.269 20.161 51.811 1.994 1.293 3.662 1.478 5.146.88 3.977-1.606 8.502-.933 11.229 2.378a111.12 111.12 0 0 0 3.557 4.102c1.297 1.424-2.064 14.304-4.049 21.405a4.745 4.745 0 0 0 3.346 5.87c4.72 1.273 12.022 3.36 17.145 5.379.331.13.67.222 1.021.278 27.547 4.318 41.006-3.1 43.45-19.293 3.676-15.315-15.828-42.677-16.165-44.891-.243-1.601 10.356 10.909 22.761 24.212 5.326 5.71 13.56 11.238 21.815 14.426l28.07 12.46c.306.134.623.25.947.324 6.956 1.6 14.407-1.704 17.717-8.36 2.452-4.547 4.021-9.842 3.217-14.947-.806-5.103-4.92-12.46-10.054-13.037 2.857-3.03 2.715-7.846-.314-10.703z"/><path stroke="#14428B" stroke-linecap="round" stroke-linejoin="round" stroke-width="3" d="M351.54 281.731c2.857-3.03 2.715-7.846-.314-10.703-2.424-2.286-5.991-2.651-8.785-1.156-1.511.81-3.38.557-4.834-.352l-1.64-1.027a4.877 4.877 0 0 1-.484-.346 6206.431 6206.431 0 0 0-23.895-19.378 4.742 4.742 0 0 1-1.546-2.273c-1.988-6.28-10.96-32.49-24.829-41.536a20.386 20.386 0 0 1 7.38 6.748c8.022 12.104 17.74-7.776 14.028-10.442-22.694-17.748-37.352-30.284-42.788-35.018a4.74 4.74 0 0 0-5.232-.67c-11.778 5.82-52.911 27.254-75.858 71.6a5.118 5.118 0 0 0-.517 1.556c-2.975 18.902 6.99 43.269 20.161 51.811 1.994 1.293 3.662 1.478 5.146.88 3.977-1.606 8.502-.933 11.229 2.378a111.12 111.12 0 0 0 3.557 4.102c1.297 1.424-2.064 14.304-4.049 21.405a4.745 4.745 0 0 0 3.346 5.87c4.72 1.273 12.022 3.36 17.145 5.379.331.13.67.222 1.021.278 27.547 4.318 41.006-3.1 43.45-19.293 3.676-15.315-15.828-42.677-16.165-44.891-.243-1.601 10.356 10.909 22.761 24.212 5.326 5.71 13.56 11.238 21.815 14.426l28.07 12.46c.306.134.623.25.947.324 6.956 1.6 14.407-1.704 17.717-8.36 2.452-4.547 4.021-9.842 3.217-14.947-.806-5.103-4.92-12.46-10.054-13.037z"/><path stroke="#14428B" stroke-linecap="round" stroke-linejoin="round" stroke-width="2" d="M306.264 276.38c6.06-5.85 13.17-10.616 20.913-13.935m-48.495 7.029c10.691-5.215 16.782-20.637 37.134-16.637m-73.213-21.53c-.214-6.985-.387-14.207 2.235-20.685 1.31-3.237 10.045-15.838 13.916-16.331m15.274 23.565s20.42 4.177 30.505 14.586m-43.569-68.788c.062 1.557-1.58 2.667-1.929 4.185-.378 1.644.822 3.194 1.963 4.436a143.461 143.461 0 0 0 17.924 16.453m10.995 8.175a54.735 54.735 0 0 1 14.184 11.904m-1.234 72.443l.682.023m-9.284 11.288a14.329 14.329 0 0 1 4.322-5.99"/><path stroke="#14428B" stroke-width="2" d="M324.098 289.359a30.794 30.794 0 0 1 9.659-11.793"/><path stroke="#14428B" stroke-linecap="round" stroke-linejoin="round" stroke-width="2" d="M222.796 297.577c.092-1.856 2.229-2.793 4.014-3.31l5.703-1.654m149.183-176.267c2.25-2.672 5.894-4.098 9.36-3.66"/><path fill="#FFF" d="M216.296 321.564c-5.425-.06-9.063 1.812-13.442 5.012-4.378 3.202-9.984 6.095-15.015 4.066l-7.039-4.507a36.109 36.109 0 0 1 4.456-9.24l1.179-1.846c2.994-5.847 12.056-18.842 16.423-24.023.16.005.1.563.26.568 2.872.1 6.171-.31 8.934-1.105 2.76-.795 6.334-.848 7.848 1.593.596.96.744 2.148 1.376 3.082.434.641 1.08 1.14 1.39 1.847.35.8.213 1.715.068 2.574-.792 4.734-1.586 9.469-2.38 14.204-.458 2.737-2.26 5.66-4.058 7.775"/><path stroke="#14428B" stroke-linecap="round" stroke-linejoin="round" stroke-width="3" d="M216.296 321.564c-5.425-.06-9.063 1.812-13.442 5.012-4.378 3.202-9.984 6.095-15.015 4.066l-7.039-4.507a36.109 36.109 0 0 1 4.456-9.24l1.179-1.846c2.994-5.847 12.056-18.842 16.423-24.023.16.005.1.563.26.568 2.872.1 6.171-.31 8.934-1.105 2.76-.795 6.334-.848 7.848 1.593.596.96.744 2.148 1.376 3.082.434.641 1.08 1.14 1.39 1.847.35.8.213 1.715.068 2.574-.792 4.734-1.586 9.469-2.38 14.204-.458 2.737-2.26 5.66-4.058 7.775z"/><path stroke="#14428B" stroke-linecap="round" stroke-linejoin="round" stroke-width="2" d="M275.859 198.391c-4.288-1.501-9.06-.335-13.226 1.478-2.566 1.115-16.306 9.945-14.537 26.272 1.27 11.709 9.017 27.146 17.213 38.325m-.952-24.986s29.976-7.321 41.992.784"/><path stroke="#14428B" stroke-width="2" d="M181.3 238.638l17.51 10.145"/><path stroke="#14428B" stroke-linecap="round" stroke-linejoin="round" stroke-width="2" d="M251.139 109.913l12.143 7.88c.795.516 1.611 1.051 2.133 1.798.62.888.756 1.98.801 3.03.228 5.353-3.2 32.692-2.08 42.004"/><g opacity=".156"><path fill="#173E77" d="M255.871 171.49a5.677 5.677 0 0 0-.177-.07l.04.858c.226.09.452.172.675.283-.85-.94.03-.378-.538-1.07"/><path stroke="#14428B" d="M255.871 171.49a5.677 5.677 0 0 0-.177-.07l.04.858c.226.09.452.172.675.283-.85-.94.03-.378-.538-1.07z"/><path fill="#0F6BC7" d="M266.357 193.881c.962-2.677-13-8.7-9.524-10.712l.797-9.884a9.801 9.801 0 0 0-5.177-1.698c-10.621 5.194-47.686 24.335-68.996 64.953-.235.45-.406.934-.493 1.435-1.166 6.734-.62 14.253 1.148 21.414l6.535 14.51c.975 2.163 2.255 4.794 3.802 7.13 1.713 2.068 3.55 3.831 5.478 5.183.302.211.594.381.88.535a5.562 5.562 0 0 0 2.862.115c3.233-.723 5.005-4.463 4.837-7.786-.168-3.322-1.425-6.523-2.968-9.468-12.055-22.997 3.193-37.52 18.214-58.065 5.17-7.074 17.14-15.592 24.802-19.834 3.521-1.951 16.439 5.971 17.803 2.172"/><path stroke="#173E77" d="M266.357 193.881c.962-2.677-13-8.7-9.524-10.712l.797-9.884a9.801 9.801 0 0 0-5.177-1.698c-10.621 5.194-47.686 24.335-68.996 64.953-.235.45-.406.934-.493 1.435-1.166 6.734-.62 14.253 1.148 21.414l6.535 14.51c.975 2.163 2.255 4.794 3.802 7.13 1.713 2.068 3.55 3.831 5.478 5.183.302.211.594.381.88.535a5.562 5.562 0 0 0 2.862.115c3.233-.723 5.005-4.463 4.837-7.786-.168-3.322-1.425-6.523-2.968-9.468-12.055-22.997 3.193-37.52 18.214-58.065 5.17-7.074 17.14-15.592 24.802-19.834 3.521-1.951 16.439 5.971 17.803 2.172z"/></g><path stroke="#14428B" stroke-linecap="round" stroke-linejoin="round" stroke-width="2" d="M283.203 192.2l-.455-.016"/><g transform="translate(63)"><circle cx="51" cy="51" r="51" fill="#008BD5"/><g opacity=".477"><mask id="j" fill="#fff"><use xlink:href="#i"/></mask><path fill="#86DAF1" d="M61.876 17.592l7.072-1.76 5.305 1.76 8.84 1.759 5.304-3.519A50.252 50.252 0 0 1 96 26.09l-.53.299-10.609 3.518-10.608-1.76-3.537-5.277H60.108l-5.305 5.278 1.769 12.314 12.376 5.278 7.073-1.76 5.304 3.52v7.036l3.536 7.037 3.536 7.037v7.036l4.774 4.75c-16.328 23.021-48.322 28.512-71.457 12.266C2.065 78.86-5.306 53.33 3.989 31.26l3.076 9.2 5.305 3.519 5.304 3.518-3.536 3.519v5.277l3.536 7.037 8.84 1.76v17.592l3.536 8.795 5.305 1.76v-8.796l7.072-5.278v-5.278l7.072-7.037 1.768-8.795h-7.072l-5.304-8.797H26.514l-3.536-7.036-5.304 5.277V40.46l-3.536-3.518v-5.278l12.376-1.759 8.84-5.278 5.305-8.796 5.304-1.759 1.768-5.278-10.608-1.759L32.1 3.694a51.514 51.514 0 0 1 42.01 1.653l-6.93 3.448h-7.073l-3.536 7.037 5.304 1.76z" mask="url(#j)"/></g></g></g></svg>